{
  "accessors": [
    {
      "bufferView": 2,
      "componentType": 5126,
      "count": 10155,
      "max": [
        1.7735332250595093,
        2.0223937034606934,
        4.087550640106201
      ],
      "min": [
        -1.8979368209838867,
        -1.9854305982589722,
        -0.03375214710831642
      ],
      "type": "VEC3"
    },
    {
      "bufferView": 2,
      "byteOffset": 121860,
      "componentType": 5126,
      "count": 10155,
      "type": "VEC3"
    },
    {
      "bufferView": 1,
      "componentType": 5126,
      "count": 10155,
      "type": "VEC2"
    },
    {
      "bufferView": 0,
      "componentType": 5125,
      "count": 35712,
      "type": "SCALAR"
    },
    {
      "bufferView": 2,
      "byteOffset": 243720,
      "componentType": 5126,
      "count": 22926,
      "max": [
        1.1698838472366333,
        1.1788123846054077,
        0.15386992692947388
      ],
      "min": [
        -0.1633608639240265,
        -0.41935497522354126,
        -1.4807019233703613
      ],
      "type": "VEC3"
    },
    {
      "bufferView": 2,
      "byteOffset": 518832,
      "componentType": 5126,
      "count": 22926,
      "type": "VEC3"
    },
    {
      "bufferView": 1,
      "byteOffset": 81240,
      "componentType": 5126,
      "count": 22926,
      "type": "VEC2"
    },
    {
      "bufferView": 0,
      "byteOffset": 142848,
      "componentType": 5125,
      "count": 105597,
      "type": "SCALAR"
    },
    {
      "bufferView": 2,
      "byteOffset": 793944,
      "componentType": 5126,
      "count": 6744,
      "max": [
        2.1541848182678223,
        2.3953349590301514,
        4.507308483123779
      ],
      "min": [
        -2.2133140563964844,
        -2.3991355895996094,
        0.022103577852249146
      ],
      "type": "VEC3"
    },
    {
      "bufferView": 2,
      "byteOffset": 874872,
      "componentType": 5126,
      "count": 6744,
      "type": "VEC3"
    },
    {
      "bufferView": 1,
      "byteOffset": 264648,
      "componentType": 5126,
      "count": 6744,
      "type": "VEC2"
    },
    {
      "bufferView": 0,
      "byteOffset": 565236,
      "componentType": 5125,
      "count": 10116,
      "type": "SCALAR"
    }
  ],
  "asset": {
    "generator": "fab-model-conversion",
    "version": "2.0"
  },
  "bufferViews": [
    {
      "buffer": 0,
      "byteLength": 605700,
      "target": 34963
    },
    {
      "buffer": 0,
      "byteLength": 318600,
      "byteOffset": 605700,
      "byteStride": 8,
      "target": 34962
    },
    {
      "buffer": 0,
      "byteLength": 955800,
      "byteOffset": 924300,
      "byteStride": 12,
      "target": 34962
    }
  ],
  "buffers": [
    {
      "byteLength": 1880100,
      "uri": "scene.bin"
    }
  ],
  "extensionsUsed": [
    "KHR_materials_specular"
  ],
  "images": [
    {
      "uri": "textures/crazyrootsBranchHIGH_baseColor.png"
    },
    {
      "uri": "textures/CrazyRootsTrunkHIGH_baseColor.png"
    },
    {
      "uri": "textures/Needles_baseColor.png"
    }
  ],
  "materials": [
    {
      "doubleSided": true,
      "extensions": {
        "KHR_materials_specular": {
          "specularColorFactor": [
            1.0,
            1.0,
            1.0
          ],
          "specularFactor": 0.1386670892711292
        }
      },
      "name": "crazyrootsBranchHIGH",
      "pbrMetallicRoughness": {
        "baseColorTexture": {
          "index": 0
        },
        "metallicFactor": 0.0
      }
    },
    {
      "doubleSided": true,
      "extensions": {
        "KHR_materials_specular": {
          "specularColorFactor": [
            1.0,
            1.0,
            1.0
          ],
          "specularFactor": 0.15085760261364606
        }
      },
      "name": "CrazyRootsTrunkHIGH",
      "pbrMetallicRoughness": {
        "baseColorTexture": {
          "index": 1
        },
        "metallicFactor": 0.0
      }
    },
    {
      "alphaMode": "BLEND",
      "doubleSided": true,
      "extensions": {
        "KHR_materials_specular": {
          "specularColorFactor": [
            1.0,
            1.0,
            1.0
          ],
          "specularFactor": 0.0
        }
      },
      "name": "Needles",
      "pbrMetallicRoughness": {
        "baseColorTexture": {
          "index": 2
        },
        "metallicFactor": 0.0
      }
    }
  ],
  "meshes": [
    {
      "name": "CrazyRootsHIGH_crazyrootsBranchHIGH_0",
      "primitives": [
        {
          "attributes": {
            "NORMAL": 1,
            "POSITION": 0,
            "TEXCOORD_0": 2
          },
          "indices": 3,
          "material": 0,
          "mode": 4
        }
      ]
    },
    {
      "name": "CrazyRootsHIGH_CrazyRootsTrunkHIGH_0",
      "primitives": [
        {
          "attributes": {
            "NORMAL": 5,
            "POSITION": 4,
            "TEXCOORD_0": 6
          },
          "indices": 7,
          "material": 1,
          "mode": 4
        }
      ]
    },
    {
      "name": "leaves.001_Needles_0",
      "primitives": [
        {
          "attributes": {
            "NORMAL": 9,
            "POSITION": 8,
            "TEXCOORD_0": 10
          },
          "indices": 11,
          "material": 2,
          "mode": 4
        }
      ]
    }
  ],
  "nodes": [
    {
      "children": [
        1
      ],
      "matrix": [
        1.0,
        0.0,
        0.0,
        0.0,
        0.0,
        2.220446049250313e-16,
        -1.0,
        0.0,
        0.0,
        1.0,
        2.220446049250313e-16,
        0.0,
        0.0,
        0.0,
        0.0,
        1.0
      ],
      "name": "Sketchfab_model"
    },
    {
      "children": [
        2
      ],
      "matrix": [
        0.009999999776482582,
        0.0,
        0.0,
        0.0,
        0.0,
        0.0,
        0.009999999776482582,
        0.0,
        0.0,
        -0.009999999776482582,
        0.0,
        0.0,
        0.0,
        0.0,
        0.0,
        1.0
      ],
      "name": "CrazyrootsHIGH.fbx"
    },
    {
      "children": [
        3
      ],
      "name": "RootNode"
    },
    {
      "children": [
        4,
        5,
        6
      ],
      "matrix": [
        99.70197324267825,
        5.258720216529314,
        -5.644678307976199,
        0.0,
        -3.707528250696389,
        -31.503536718791736,
        -94.8355492865309,
        0.0,
        -6.765408990038592,
        94.76218478735164,
        -31.214676830723118,
        0.0,
        -1103.90576171875,
        14.53704833984375,
        762.863037109375,
        1.0
      ],
      "name": "CrazyRootsHIGH"
    },
    {
      "mesh": 0,
      "name": "CrazyRootsHIGH_crazyrootsBranchHIGH_0"
    },
    {
      "mesh": 1,
      "name": "CrazyRootsHIGH_CrazyRootsTrunkHIGH_0"
    },
    {
      "children": [
        7
      ],
      "matrix": [
        1.0,
        -6.938893903907228e-18,
        -2.0816681711721685e-17,
        0.0,
        6.938894214099958e-18,
        0.9999999999999999,
        1.4901161249358807e-08,
        0.0,
        2.081668160832411e-17,
        -1.4901161249358807e-08,
        0.9999999999999999,
        0.0,
        -1.7763568394002505e-15,
        -4.76837158203125e-07,
        -2.220446049250313e-16,
        1.0
      ],
      "name": "leaves.001"
    },
    {
      "mesh": 2,
      "name": "leaves.001_Needles_0"
    }
  ],
  "samplers": [
    {
      "magFilter": 9729,
      "minFilter": 9987,
      "wrapS": 10497,
      "wrapT": 10497
    }
  ],
  "scene": 0,
  "scenes": [
    {
      "name": "Sketchfab_Scene",
      "nodes": [
        0
      ]
    }
  ],
  "textures": [
    {
      "sampler": 0,
      "source": 0
    },
    {
      "sampler": 0,
      "source": 1
    },
    {
      "sampler": 0,
      "source": 2
    }
  ]
}
